<svg viewBox="0 0 28 28" fill="none" xmlns="http://www.w3.org/2000/svg">
<path d="M13.6016 0.800781C20.6714 0.800781 26.4023 6.53169 26.4023 13.6016C26.4023 20.6714 20.6714 26.4023 13.6016 26.4023C6.53169 26.4023 0.800781 20.6714 0.800781 13.6016C0.800781 6.53169 6.53169 0.800782 13.6016 0.800781Z" fill="#9EDBFD"/>
<path d="M11.3023 12.0226C12.0917 12.0226 12.7316 11.3827 12.7316 10.5933C12.7316 9.80397 12.0917 9.16406 11.3023 9.16406C10.513 9.16406 9.87305 9.80397 9.87305 10.5933C9.87305 11.3827 10.513 12.0226 11.3023 12.0226Z" fill="#545A66"/>
<path d="M15.9019 12.0226C16.6913 12.0226 17.3312 11.3827 17.3312 10.5933C17.3312 9.80397 16.6913 9.16406 15.9019 9.16406C15.1126 9.16406 14.4727 9.80397 14.4727 10.5933C14.4727 11.3827 15.1126 12.0226 15.9019 12.0226Z" fill="#545A66"/>
<path d="M17.7098 15.835C16.289 18.0126 13.3735 18.6264 11.1957 17.2068L11.1948 17.2063C10.6426 16.8454 10.1873 16.3869 9.8418 15.8632L11.3204 14.8877C11.5329 15.2098 11.815 15.4954 12.1639 15.7235C13.5222 16.6082 15.3401 16.2254 16.2263 14.8672L17.7098 15.835Z" fill="#545A66"/>
</svg>
